<svg width="180" height="48" viewBox="0 0 180 48" fill="none" xmlns="http://www.w3.org/2000/svg">
  <!-- Icon: Modern C with integrated growth chart - Dark Mode -->
  <g id="icon">
    <!-- Background circle with subtle glow -->
    <circle cx="24" cy="24" r="22" fill="#99B4A8" fill-opacity="0.1"/>

    <!-- Main C arc - lighter for dark mode -->
    <path d="M24 4C12.954 4 4 12.954 4 24C4 35.046 12.954 44 24 44C29.523 44 34.523 41.761 38.142 38.142"
          stroke="#99B4A8"
          stroke-width="4"
          stroke-linecap="round"/>

    <!-- Financial growth bars - ascending pattern inside C -->
    <g id="growth-bars">
      <rect x="14" y="28" width="4" height="8" rx="1.5" fill="#99B4A8"/>
      <rect x="20" y="22" width="4" height="14" rx="1.5" fill="#B3C7BD"/>
      <rect x="26" y="16" width="4" height="20" rx="1.5" fill="#CFE0D8"/>
    </g>

    <!-- Accent dot - represents precision/data point -->
    <circle cx="38" cy="10" r="3" fill="#99B4A8"/>
  </g>

  <!-- Text: CENTRY - Light text for dark backgrounds -->
  <g id="text" transform="translate(56, 10)">
    <!-- C -->
    <path d="M7 28C3.134 28 0 24.866 0 21C0 17.134 3.134 14 7 14C9.485 14 11.67 15.326 12.886 17.3"
          stroke="#F3F4F6"
          stroke-width="3.5"
          stroke-linecap="round"
          fill="none"/>

    <!-- E -->
    <path d="M20 14H30M20 21H28.5M20 28H30M20 14V28"
          stroke="#F3F4F6"
          stroke-width="3.5"
          stroke-linecap="round"
          stroke-linejoin="round"/>

    <!-- N -->
    <path d="M38 28V14M38 14L50 28M50 14V28"
          stroke="#F3F4F6"
          stroke-width="3.5"
          stroke-linecap="round"
          stroke-linejoin="round"/>

    <!-- T -->
    <path d="M58 14H72M65 14V28"
          stroke="#F3F4F6"
          stroke-width="3.5"
          stroke-linecap="round"
          stroke-linejoin="round"/>

    <!-- R -->
    <path d="M80 28V14H86C88.761 14 91 16.239 91 19C91 21.761 88.761 24 86 24H80M86 24L91 28"
          stroke="#F3F4F6"
          stroke-width="3.5"
          stroke-linecap="round"
          stroke-linejoin="round"/>

    <!-- Y -->
    <path d="M99 14L106 23M106 23L113 14M106 23V28"
          stroke="#F3F4F6"
          stroke-width="3.5"
          stroke-linecap="round"
          stroke-linejoin="round"/>
  </g>
</svg>
